<svg width="100%" height="100%" viewBox="0 0 64 64" version="1.1" xmlns="http://www.w3.org/2000/svg" xmlns:xlink="http://www.w3.org/1999/xlink" xml:space="preserve" xmlns:serif="http://www.serif.com/" style="fill-rule:evenodd;clip-rule:evenodd;stroke-linejoin:round;stroke-miterlimit:2;">
    <g transform="matrix(2.857143,0,0,2.857143,9.142857,8.142857)">
        <path d="M4.825,8.517L4.825,7.7C4.825,7.603 4.903,7.525 5,7.525L11,7.525C11.097,7.525 11.175,7.603 11.175,7.7L11.175,8.517L10.674,8.875L5.326,8.875L4.825,8.517ZM5,5.175L11,5.175C11.097,5.175 11.175,5.253 11.175,5.35L11.175,6.35C11.175,6.447 11.097,6.525 11,6.525L5,6.525C4.903,6.525 4.825,6.447 4.825,6.35L4.825,5.35C4.825,5.253 4.903,5.175 5,5.175Z" fill="currentColor" opacity=".4"/>
    </g>
    <g transform="matrix(2.857143,0,0,2.857143,9.142857,8.142857)">
        <path d="M0.898,5.858L2.898,4.429C2.952,4.39 3.022,4.385 3.08,4.415C3.138,4.445 3.175,4.505 3.175,4.571L3.175,5.783C3.175,5.839 3.148,5.892 3.102,5.925L2.175,6.59L2.175,6.624L8,10.785L13.825,6.624L13.825,6.59L12.898,5.925C12.852,5.892 12.825,5.839 12.825,5.783L12.825,4.571C12.825,4.505 12.862,4.445 12.92,4.415C12.978,4.385 13.048,4.39 13.102,4.429L15.102,5.858C15.148,5.89 15.175,5.943 15.175,6L15.175,15C15.175,15.097 15.097,15.175 15,15.175L1,15.175C0.903,15.175 0.825,15.097 0.825,15L0.825,6C0.825,5.943 0.852,5.89 0.898,5.858ZM13.825,8.248L10.767,10.52L13.825,13.578L13.825,8.248ZM3.922,13.725L12.078,13.725L9.584,11.231L8.105,12.34C8.046,12.384 7.966,12.387 7.905,12.347L6.324,11.324L3.922,13.725ZM2.175,13.569L5.233,10.424L2.175,8.24L2.175,13.569ZM5.098,2.858L7.898,0.858C7.959,0.814 8.041,0.814 8.102,0.858L10.902,2.858C10.964,2.902 10.99,2.981 10.967,3.053C10.943,3.126 10.876,3.175 10.8,3.175L9.116,3.175C9.079,3.175 9.044,3.164 9.014,3.142L8,2.415L6.986,3.142C6.956,3.164 6.921,3.175 6.884,3.175L5.2,3.175C5.124,3.175 5.057,3.126 5.033,3.053C5.01,2.981 5.036,2.902 5.098,2.858Z" fill="currentColor"/>
    </g>
    <g transform="matrix(2.857143,0,0,2.857143,9.142857,8.142857)">
        <path d="M2.825,7.088L2.825,3C2.825,2.903 2.903,2.825 3,2.825L13,2.825C13.097,2.825 13.175,2.903 13.175,3L13.175,7.088L11.825,8.053L11.825,4.175L4.175,4.175L4.175,8.053L2.825,7.088Z" fill="var(--icon-color-accent, #ff8700)"/>
    </g>
</svg>
